# AST/ASF file generated using VICON BodyLanguage
# -----------------------------------------------
:version 1.10
:name VICON
:units
  mass 1.0
  length 0.45
  angle deg
:documentation
   .ast/.asf automatically generated from VICON data using
   VICON BodyBuilder and BodyLanguage model FoxedUp or BRILLIANT.MOD
:root
   order TX TY TZ RX RY RZ
   axis XYZ
   position 0 0 0  
   orientation 0 0 0 
:bonedata
  begin
     id 1 
     name lhipjoint
     direction 0.603808 -0.713975 0.35448 
     length 2.2025 
     axis 0 0 0  XYZ
  end
  begin
     id 2 
     name lfemur
     direction 0.34202 -0.939693 0  
     length 6.55877  
     axis 0 0 20  XYZ
    dof rx ry rz
    limits (-160.0 20.0)
           (-70.0 70.0)
           (-60.0 70.0)
  end
  begin
     id 3 
     name ltibia
     direction 0.34202 -0.939693 0   
     length 6.80302   
     axis 0 0 20   XYZ
    dof rx
    limits (-10.0 170.0)
  end
  begin
     id 4 
     name lfoot
     direction 0.091848 -0.25235 0.963267   
     length 2.03446   
     axis -90 7.62852e-016 20   XYZ
    dof rx rz
    limits (-45.0 90.0)
           (-70.0 20.0)
  end
  begin
     id 5 
     name ltoes
     direction 1.53608e-011 -4.21925e-011 1   
     length 1.02033   
     axis -90 7.62852e-016 20   XYZ
    dof rx
    limits (-90.0 20.0)
  end
  begin
     id 6 
     name rhipjoint
     direction -0.587285 -0.724947 0.359928   
     length 2.16916  
     axis 0 0 0  XYZ 
  end
  begin
     id 7 
     name rfemur
     direction -0.34202 -0.939693 0   
     length 6.43173   
     axis 0 0 -20   XYZ
    dof rx ry rz
    limits (-160.0 20.0)
           (-70.0 70.0)
           (-70.0 60.0)
  end
  begin
     id 8 
     name rtibia
     direction -0.34202 -0.939693 0   
     length 6.70662   
     axis 0 0 -20   XYZ
    dof rx
    limits (-10.0 170.0)
 end
 begin
     id 9 
     name rfoot
     direction -0.11854 -0.325686 0.938018   
     length 2.0773  
     axis -90 -7.62852e-016 -20   XYZ
    dof rx rz
    limits (-45.0 90.0)
           (-20.0 70.0)
  end
  begin
     id 10 
     name rtoes
     direction -1.53547e-011 -4.21838e-011 1   
     length 1.03267   
     axis -90 -7.62852e-016 -20   XYZ
    dof rx
    limits (-90.0 20.0)
  end
  begin
     id 11 
     name lowerback
     direction -0.0286554 0.999539 0.0100613   
     length 2.08751   
     axis 0 0 0   XYZ
    dof rx ry rz
    limits (-20.0 45.0)
           (-30.0 30.0)
           (-30.0 30.0)
  end
  begin
     id 12 
     name upperback
     direction 0.0227093 0.999705 -0.00860929   
     length 2.08517   
     axis 0 0 0   XYZ
    dof rx ry rz
    limits (-20.0 45.0)
           (-30.0 30.0)
           (-30.0 30.0)
  end
  begin
     id 13 
     name thorax
     direction 0.0351627 0.999285 -0.013892   
     length 2.08412   
     axis 0 0 0   XYZ
    dof rx ry rz
    limits (-20.0 45.0)
           (-30.0 30.0)
           (-30.0 30.0)
  end
  begin
     id 14 
     name lowerneck
     direction -0.0696283 0.997344 0.0213922   
     length 1.44164   
     axis 0 0 0   XYZ
    dof rx ry rz
    limits (-20.0 45.0)
           (-30.0 30.0)
           (-30.0 30.0)
  end
  begin
     id 15 
     name upperneck
     direction 0.0531 0.990412 -0.127531   
     length 1.45022   
     axis 0 0 0   XYZ
    dof rx ry rz
    limits (-20.0 45.0)
           (-30.0 30.0)
           (-30.0 30.0)
  end
  begin
     id 16
     name head
     direction 0.0188154 0.998548 -0.0504727  
     length 1.45845  
     axis 0 0 0   XYZ
    dof rx ry rz
    limits (-20.0 45.0)
           (-30.0 30.0)
           (-30.0 30.0)
  end
  begin
     id 17 
     name lclavicle
     direction 0.961559 0.260051 0.088188  
     length 2.86057  
     axis 0 0 0   XYZ
    dof ry rz
    limits (-20.0 10.0)
           (0.0 20.0)
  end
  begin
     id 18 
     name lhumerus
     direction 1 -4.48959e-011 2.88185e-027   
     length 4.36901   
     axis 180 -30 -90   XYZ
    dof rx ry rz
    limits (-60.0 90.0)
           (-90.0 90.0)
           (-90.0 90.0)
  end
  begin
     id 19
     name lradius
     direction 1 -4.48965e-011 -3.92618e-028   
     length 3.21737   
     axis 180 -30 -90   XYZ
    dof rx
    limits (-10.0 170.0)
  end
  begin
     id 20
     name lwrist
     direction 1 -4.49037e-011 2.57246e-027   
     length 1.60869   
     axis -1.61769e-015 90 90   XYZ
    dof ry
    limits (-180.0 0.0)
 end
  begin
     id 21 
     name lhand
     direction 1 -4.48807e-011 5.12958e-027   
     length 0.564313   
     axis -3.27988e-015 90 90   XYZ
    dof rx rz
    limits (-90.0 90.0)
           (-45.0 45.0)
  end
  begin
     id 22 
     name lfingers
     direction 1 -4.48879e-011 1.02687e-026   
     length 0.454963   
     axis -6.5598e-015 90 90   XYZ
    dof rx
    limits (0.0 90.0)
  end
  begin
     id 23
     name lthumb
     direction 0.707107 -6.3475e-011 0.707107   
     length 0.653239   
     axis -90 45 2.19363e-014   XYZ
    dof rx rz
    limits (-45.0 45.0)
           (-45.0 45.0)
  end
  begin
     id 24 
     name rclavicle
     direction -0.954677 0.253915 0.155304   
     length 3.11497  
     axis 0 0 0   XYZ 
    dof ry rz
    limits (-10.0 20.0)
           (-20.0 0.0)
  end
  begin
     id 25 
     name rhumerus
     direction -1 -4.48958e-011 -8.20169e-028  
     length 4.34118   
     axis 180 30 90   XYZ
    dof rx ry rz
    limits (-90.0 60.0)
           (-90.0 90.0)
           (-90.0 90.0)
  end
  begin
     id 26 
     name rradius
     direction -1 -4.48978e-011 1.5676e-027   
     length 3.09531   
     axis 180 30 90   XYZ
    dof rx
    limits (-10.0 170.0)
  end
  begin
     id 27 
     name rwrist
     direction -1 -4.49001e-011 2.57123e-027   
     length 1.54765   
     axis -1.61769e-015 -90 -90   XYZ
    dof ry
    limits (-180.0 0.0)
  end
  begin
     id 28
     name rhand
     direction -1 -4.48847e-011 5.13225e-027   
     length 0.597446   
     axis -3.27988e-015 -90 -90   XYZ
    dof rx rz
    limits (-90.0 90.0)
           (-45.0 45.0)
  end
  begin
     id 29
     name rfingers
     direction -1 -4.49094e-011 1.02974e-026   
     length 0.481677   
     axis -6.5598e-015 -90 -90   XYZ
    dof rx
    limits (0.0 90.0)
  end
  begin
     id 30
     name rthumb
     direction -0.707107 -6.34859e-011 0.707107   
     length 0.691594   
     axis -90 -45 -2.19363e-014   XYZ
    dof rx rz
    limits (-45.0 45.0)
           (-45.0 45.0)
  end
:hierarchy
  begin
    root lhipjoint rhipjoint lowerback
    lhipjoint lfemur
    lfemur ltibia
    ltibia lfoot
    lfoot ltoes
    rhipjoint rfemur
    rfemur rtibia
    rtibia rfoot
    rfoot rtoes
    lowerback upperback
    upperback thorax
    thorax lowerneck lclavicle rclavicle
    lowerneck upperneck
    upperneck head
    lclavicle lhumerus
    lhumerus lradius
    lradius lwrist
    lwrist lhand lthumb
    lhand lfingers
    rclavicle rhumerus
    rhumerus rradius
    rradius rwrist
    rwrist rhand rthumb
    rhand rfingers
  end

#!OML:ASF I:\Acrobat_Osman\acrobat\cartwheel_test 2\Patient 1\Session 1\acrobat.ASF
:FULLY-SPECIFIED
:DEGREES
2289
root 10.2462 26.098 12.7193 262.117 -125.801 -470.753
lowerback 0.948154 1.26413 3.88228
upperback -7.43483 3.09258 13.8389
thorax -9.27844 1.79943 12.999
lowerneck -20.936 -6.72698 -4.54591
upperneck -1.99266 -8.54905 5.6573
head 3.05965 -4.17964 1.72219
rclavicle -9.62118e-014 -4.77083e-015
rhumerus 72.8921 6.02626 -56.8974
rradius 31.386
rwrist 9.66815
rhand -62.034 -108.385
rfingers 7.12502
rthumb -34.086 81.6201
lclavicle -9.62118e-014 -4.77083e-015
lhumerus -99.212 152.546 188.454
lradius 30.2164
lwrist -356.287
lhand -45.0474 -661.2
lfingers 7.12502
lthumb -17.8293 808.003
rfemur -24.191 -21.3179 -13.4601
rtibia 78.1216
rfoot 22.714 0.161793
rtoes 5.76624
lfemur 174.31 164.067 146.367
ltibia 61.1038
lfoot 23.7827 -6.8639
ltoes 1.38722
2290
root 10.4635 25.8527 12.4921 265.966 -127.034 -478.051
lowerback 1.76107 1.19017 3.33145
upperback -7.23235 3.01209 13.8194
thorax -9.54643 1.81324 13.3144
lowerneck -21.5344 -7.33679 -5.24541
upperneck -0.21272 -9.26153 7.04458
head 3.8428 -4.39064 2.13189
rclavicle -8.50798e-014 7.95139e-015
rhumerus 69.9492 8.64129 -62.2988
rradius 30.0141
rwrist 11.4184
rhand -61.9584 -113.39
rfingers 7.12502
rthumb -34.0142 86.6092
lclavicle -8.50798e-014 7.95139e-015
lhumerus -98.5446 157.182 190.835
lradius 31.097
lwrist -356.719
lhand -44.6889 -660.588
lfingers 7.12502
lthumb -17.4843 808.645
rfemur -29.3346 -22.2579 -12.2896
rtibia 79.1504
rfoot 20.1639 0.0159255
rtoes 6.9355
lfemur 175.421 164.094 147.871
ltibia 59.6824
lfoot 22.8485 -7.82678
ltoes 0.579965
2291
root 10.6777 25.581 12.2627 268.845 -128.322 -484.556
lowerback 2.64455 1.24111 2.32259
upperback -6.65858 2.99818 13.6791
thorax -9.45952 1.87366 13.7259
lowerneck -23.3168 -8.00289 -5.29418
upperneck 1.59551 -10.2118 8.06751
head 4.79036 -4.70398 2.26546
rclavicle -1.59028e-014 -9.54166e-014
rhumerus 67.0314 10.2988 -65.6353
rradius 29.4677
rwrist 11.5676
rhand -61.8419 -117.777
rfingers 7.12502
rthumb -33.9036 -90.9715
lclavicle -1.59028e-014 -9.54166e-014
lhumerus -97.8162 161.28 193.768
lradius 31.908
lwrist -357.303
lhand -44.0206 -659.977
lfingers 7.12502
lthumb -16.841 809.313
rfemur -34.7355 -23.1914 -10.6742
rtibia 79.716
rfoot 19.1815 -0.410247
rtoes 7.27838
lfemur 176.899 164.632 149.382
ltibia 58.2044
lfoot 22.5088 -9.27022
ltoes 1.47007
2292
root 10.8911 25.3015 12.0199 270.413 -129.673 -490.106
lowerback 3.89001 1.21124 1.45561
upperback -6.19904 2.89797 13.2625
thorax -9.66626 1.87665 13.7323
lowerneck -24.222 -8.66761 -5.47936
upperneck 2.98694 -11.1984 9.43313
head 5.53803 -5.01129 2.54369
rclavicle 9.70069e-014 1.59028e-015
rhumerus 64.0486 11.6874 -68.3218
rradius 28.9342
rwrist 10.997
rhand -61.8048 -126.488
rfingers 7.12502
rthumb -33.8683 -99.6747
lclavicle 9.70069e-014 1.59028e-015
lhumerus -96.1754 165.518 194.375
lradius 31.7785
lwrist -356.226
lhand -42.9495 -657.68
lfingers 7.12502
lthumb -15.8097 988.305
rfemur -39.9406 -24.1776 -8.55999
rtibia 79.6604
rfoot 20.5589 -0.227743
rtoes -3.12412
lfemur 178.891 165.884 150.856
ltibia 56.6295
lfoot 22.5627 -10.0634
ltoes 1.46918
2293
root 11.1043 24.985 11.7713 271.125 -131.067 -494.986
lowerback 5.25237 1.12861 0.576966
upperback -5.82424 2.70661 12.6489
thorax -10.0018 1.83204 13.5301
lowerneck -25.1037 -9.08456 -5.18815
upperneck 4.82424 -11.9996 10.226
head 6.36862 -5.21673 2.58308
rclavicle 1.27222e-014 0
rhumerus 60.8659 12.8556 -71.0433
rradius 28.6274
rwrist 10.3948
rhand -61.5563 -136.446
rfingers 7.12502
rthumb -33.6321 -109.582
lclavicle 1.27222e-014 0
lhumerus -95.8981 169.215 192.515
lradius 32.8756
lwrist -353.259
lhand -42.069 -656.884
lfingers 7.12502
lthumb -14.9616 987.444
rfemur -45.0028 -24.3116 -6.18137
rtibia 78.6077
rfoot 22.1705 -0.91315
rtoes 1.47312
lfemur 181.324 167.544 152.4
ltibia 54.819
lfoot 22.9447 -9.46491
ltoes 0.365889
2294
root 11.3061 24.6175 11.5452 270.547 -132.526 -498.961
lowerback 6.94084 0.963408 -0.232612
upperback -5.43256 2.39941 11.9779
thorax -10.481 1.72769 13.2549
lowerneck -25.2956 -9.45678 -4.96042
upperneck 6.13239 -12.7313 10.8999
head 6.9276 -5.42643 2.62809
rclavicle -7.95139e-014 -2.0276e-013
rhumerus 57.5825 13.9225 -73.431
rradius 28.7007
rwrist 9.44768
rhand -61.5043 -140.692
rfingers 7.12502
rthumb -33.5828 -113.817
lclavicle -7.95139e-014 -2.0276e-013
lhumerus -94.9067 173.413 192.416
lradius 33.5837
lwrist -351.602
lhand -40.9573 -658.288
lfingers 7.12502
lthumb -13.8905 988.772
rfemur -49.3653 -23.6581 -3.8215
rtibia 76.6007
rfoot 24.1312 -0.514434
rtoes 2.9093
lfemur 184.617 169.605 154.148
ltibia 52.5851
lfoot 24.103 -7.83683
ltoes 2.03543
2295
root 11.5058 24.2337 11.2939 269.444 -134.082 -502.351
lowerback 8.45136 0.866528 -0.979303
upperback -5.06404 2.15254 11.2984
thorax -10.8929 1.64402 12.936
lowerneck -25.0642 -9.74231 -4.39673
upperneck 6.84022 -13.3857 11.212
head 7.17158 -5.66028 2.53779
rclavicle 5.88403e-014 -1.4074e-013
rhumerus 54.3003 14.422 -76.2303
rradius 28.7312
rwrist 8.54192
rhand -61.4447 -143.253
rfingers 7.12502
rthumb -33.5261 -116.365
lclavicle 5.88403e-014 -1.4074e-013
lhumerus -93.5054 177.751 193.481
lradius 34.2635
lwrist -350.311
lhand -38.8813 -658.357
lfingers 7.12502
lthumb -11.8891 988.715
rfemur -53.1371 -22.3439 -1.28095
rtibia 73.5828
rfoot 24.6287 0.181221
rtoes 1.47683
lfemur 188.066 171.864 155.964
ltibia 50.0584
lfoot 24.307 -5.19166
ltoes -0.72408
2296
root 11.6972 23.8214 11.0272 268.173 -135.658 -505.305
lowerback 9.62459 0.834607 -1.8101
upperback -4.82061 1.95542 10.6416
thorax -11.2645 1.59442 12.7005
lowerneck -24.7017 -10.0494 -3.83366
upperneck 7.57997 -14.0763 11.5107
head 7.40663 -5.90927 2.44036
rclavicle -1.43125e-014 -4.77083e-014
rhumerus 50.9733 14.6293 -78.7945
rradius 29.0938
rwrist 7.0111
rhand -61.0833 -145.886
rfingers 7.12502
rthumb -33.1825 -118.925
lclavicle -1.43125e-014 -4.77083e-014
lhumerus -92.3568 181.449 193.099
lradius 35.333
lwrist -347.304
lhand -37.9812 -657.962
lfingers 7.12502
lthumb -11.0212 988.271
rfemur -56.5137 -20.1886 1.06211
rtibia 69.5559
rfoot 25.1604 0.199082
rtoes 9.63217
lfemur 191.526 174.146 157.759
ltibia 47.0172
lfoot 25.6115 -1.91254
ltoes 0.64308
2297
root 11.8743 23.3787 10.7482 266.595 -137.221 -507.799
lowerback 10.5545 0.803517 -2.817
upperback -4.62642 1.71519 10.0659
thorax -11.5495 1.54081 12.687
lowerneck -24.2943 -10.3536 -3.56282
upperneck 8.5142 -14.6877 11.7461
head 7.70645 -6.12005 2.37652
rclavicle -1.36764e-013 -1.94014e-013
rhumerus 47.5318 15.4049 -79.7596
rradius 30.6871
rwrist 3.99041
rhand -61.1821 -144.726
rfingers 7.12502
rthumb -33.2765 -117.784
lclavicle -1.36764e-013 -1.94014e-013
lhumerus -91.2844 184.138 192.363
lradius 36.2042
lwrist -345.234
lhand -36.0948 -659.063
lfingers 7.12502
lthumb -9.20132 989.284
rfemur -59.207 -17.4084 2.92481
rtibia 64.5712
rfoot 25.3659 -1.0189
rtoes 8.19767
lfemur 195.063 176.459 159.573
ltibia 43.5175
lfoot 26.3015 1.97971
ltoes 0.483204
2298
root 12.028 22.8974 10.495 264.61 -138.917 -509.635
lowerback 11.1319 0.637853 -3.76062
upperback -4.44298 1.29611 9.66769
thorax -11.5933 1.39231 12.882
lowerneck -23.9992 -10.7141 -3.56677
upperneck 9.75223 -15.3756 12.2218
head 8.1788 -6.32519 2.40783
rclavicle -4.13472e-014 1.27222e-013
rhumerus 44.5872 16.7318 -79.8196
rradius 32.3865
rwrist 0.334857
rhand -61.7929 -141.768
rfingers 7.12502
rthumb -33.857 -114.952
lclavicle -4.13472e-014 1.27222e-013
lhumerus -90.7398 185.982 190.686
lradius 37.6149
lwrist -341.142
lhand -35.1048 -660.795
lfingers 7.12502
lthumb -8.24591 1169.02
rfemur -61.2597 -14.6426 4.4113
rtibia 58.7846
rfoot 23.5741 -1.96762
rtoes 8.66372
lfemur 198.531 178.888 161.443
ltibia 39.4551
lfoot 26.5725 5.54493
ltoes -1.12461
2299
root 12.1644 22.3955 10.252 262.15 -140.519 -510.627
lowerback 11.2669 0.362005 -4.70431
upperback -4.24603 0.711687 9.23409
thorax -11.3015 1.13772 13.0478
lowerneck -23.2181 -11.1172 -3.95996
upperneck 10.475 -15.9894 12.8326
head 8.44197 -6.54795 2.57667
rclavicle 7.31528e-014 9.78021e-014
rhumerus 42.4314 17.7538 -79.9012
rradius 33.262
rwrist -3.04585
rhand -62.0352 -140.154
rfingers 7.12502
rthumb -34.0871 -113.389
lclavicle 7.31528e-014 9.78021e-014
lhumerus -90.1685 187.333 189.804
lradius 39.002
lwrist -338.156
lhand -31.9306 -663.371
lfingers 7.12502
lthumb -5.18176 1166.55
rfemur -62.6421 -11.9502 4.74382
rtibia 52.4585
rfoot 22.1789 -2.3533
rtoes 8.1946
lfemur 201.701 181.343 163.171
ltibia 34.9761
lfoot 28.0489 9.32743
ltoes -0.211642
